<svg width="14" height="13" viewBox="0 0 14 13" fill="none" xmlns="http://www.w3.org/2000/svg">
<path d="M11.8 3.39941H2.2C1.53726 3.39941 1 3.93667 1 4.59941V10.5994C1 11.2622 1.53726 11.7994 2.2 11.7994H11.8C12.4627 11.7994 13 11.2622 13 10.5994V4.59941C13 3.93667 12.4627 3.39941 11.8 3.39941Z" stroke="#515E5F" stroke-width="1.5" stroke-linecap="round" stroke-linejoin="round"/>
<path d="M9.4001 11.8V2.2C9.4001 1.88174 9.27367 1.57652 9.04863 1.35147C8.82358 1.12643 8.51836 1 8.2001 1H5.8001C5.48184 1 5.17661 1.12643 4.95157 1.35147C4.72653 1.57652 4.6001 1.88174 4.6001 2.2V11.8" stroke="#515E5F" stroke-width="1.5" stroke-linecap="round" stroke-linejoin="round"/>
</svg>
