<svg width="16" height="14" viewBox="0 0 16 14" fill="none" xmlns="http://www.w3.org/2000/svg">
<path d="M6.85433 1.64502L1.17957 11.1186C1.06257 11.3212 1.00066 11.5509 1.00001 11.7849C0.99935 12.0189 1.05997 12.2489 1.17583 12.4522C1.2917 12.6555 1.45877 12.8249 1.66042 12.9435C1.86207 13.0622 2.09128 13.126 2.32524 13.1285H13.6748C13.9087 13.126 14.1379 13.0622 14.3396 12.9435C14.5412 12.8249 14.7083 12.6555 14.8242 12.4522C14.94 12.2489 15.0006 12.0189 15 11.7849C14.9993 11.5509 14.9374 11.3212 14.8204 11.1186L9.14567 1.64502C9.02623 1.44812 8.85806 1.28532 8.65738 1.17234C8.45671 1.05936 8.2303 1 8 1C7.7697 1 7.54329 1.05936 7.34262 1.17234C7.14194 1.28532 6.97377 1.44812 6.85433 1.64502Z" stroke="#515E5F" stroke-width="1.5" stroke-linecap="round" stroke-linejoin="round"/>
<path d="M8 5.08887V7.7688" stroke="#515E5F" stroke-width="1.5" stroke-linecap="round" stroke-linejoin="round"/>
<path d="M8 10.4482H8.00663" stroke="#515E5F" stroke-width="1.5" stroke-linecap="round" stroke-linejoin="round"/>
</svg>
