<svg width="9" height="12" viewBox="0 0 9 12" fill="none" xmlns="http://www.w3.org/2000/svg">
<path d="M8.4375 0H0.5625C0.251836 0 0 0.251836 0 0.5625V0.9375C0 1.24816 0.251836 1.5 0.5625 1.5C0.5625 3.63199 1.75819 5.43127 3.39473 6C1.75819 6.56873 0.5625 8.36801 0.5625 10.5C0.251836 10.5 0 10.7518 0 11.0625V11.4375C0 11.7482 0.251836 12 0.5625 12H8.4375C8.74816 12 9 11.7482 9 11.4375V11.0625C9 10.7518 8.74816 10.5 8.4375 10.5C8.4375 8.36801 7.24181 6.56873 5.60527 6C7.24181 5.43127 8.4375 3.63199 8.4375 1.5C8.74816 1.5 9 1.24816 9 0.9375V0.5625C9 0.251836 8.74816 0 8.4375 0ZM6.67786 9H2.32219C2.72201 7.9032 3.54319 7.125 4.5 7.125C5.45674 7.125 6.27802 7.90303 6.67786 9ZM6.6783 3H2.32214C2.15597 2.54409 2.0625 2.03316 2.0625 1.5H6.9375C6.9375 2.03449 6.84405 2.54501 6.6783 3Z" fill="#205BC3"/>
</svg>
