<svg width="14" height="12" viewBox="0 0 14 12" fill="none" xmlns="http://www.w3.org/2000/svg">
<path d="M13 5.80029H9.4L8.2 7.60029H5.8L4.6 5.80029H1" stroke="#364141" stroke-width="1.5" stroke-linecap="round" stroke-linejoin="round"/>
<path d="M3.07 1.666L1 5.8V9.4C1 9.71826 1.12643 10.0235 1.35147 10.2485C1.57652 10.4736 1.88174 10.6 2.2 10.6H11.8C12.1183 10.6 12.4235 10.4736 12.6485 10.2485C12.8736 10.0235 13 9.71826 13 9.4V5.8L10.93 1.666C10.8307 1.46607 10.6775 1.29782 10.4878 1.18017C10.298 1.06251 10.0793 1.00012 9.856 1H4.144C3.92075 1.00012 3.70196 1.06251 3.51223 1.18017C3.3225 1.29782 3.16935 1.46607 3.07 1.666Z" stroke="#364141" stroke-width="1.5" stroke-linecap="round" stroke-linejoin="round"/>
</svg>
