<svg width="16" height="16" viewBox="0 0 16 16" fill="none" xmlns="http://www.w3.org/2000/svg">
<path d="M10.6666 5.33334C11.7275 5.33334 12.7449 5.75476 13.4951 6.50491C14.2452 7.25505 14.6666 8.27247 14.6666 9.33334V14H12V9.33334C12 8.97971 11.8595 8.64058 11.6094 8.39053C11.3594 8.14048 11.0202 8 10.6666 8C10.313 8 9.97387 8.14048 9.72382 8.39053C9.47377 8.64058 9.33329 8.97971 9.33329 9.33334V14H6.66663V9.33334C6.66663 8.27247 7.08805 7.25505 7.8382 6.50491C8.58834 5.75476 9.60576 5.33334 10.6666 5.33334Z" stroke="#061247" stroke-opacity="0.6" stroke-width="2" stroke-linecap="round" stroke-linejoin="round"/>
<path d="M4.00004 6H1.33337V14H4.00004V6Z" stroke="#061247" stroke-opacity="0.6" stroke-width="2" stroke-linecap="round" stroke-linejoin="round"/>
<path d="M2.66671 4C3.40309 4 4.00004 3.40305 4.00004 2.66667C4.00004 1.93029 3.40309 1.33334 2.66671 1.33334C1.93033 1.33334 1.33337 1.93029 1.33337 2.66667C1.33337 3.40305 1.93033 4 2.66671 4Z" stroke="#061247" stroke-opacity="0.6" stroke-width="2" stroke-linecap="round" stroke-linejoin="round"/>
</svg>
