<svg width="280" height="195" viewBox="0 0 280 195" fill="none" xmlns="http://www.w3.org/2000/svg">
<path fill-rule="evenodd" clip-rule="evenodd" d="M39.3946 95C39.3946 111.385 43.3353 126.85 50.3207 140.498C36.5472 142.024 22.0119 143.225 7.02024 144.069C2.47162 144.325 -1.49256 149.404 0.552248 152.387C1.22242 153.365 2.45501 153.887 3.94067 153.82C21.8373 153.01 39.2985 151.795 56.001 150.206C73.9078 177.202 104.573 195 139.395 195C194.623 195 239.395 150.228 239.395 95C239.395 78.631 235.462 63.1805 228.489 49.5421C242.546 47.9859 257.394 46.7691 272.709 45.9242C277.228 45.6749 281.188 40.6485 279.201 37.6526C278.539 36.6536 277.297 36.117 275.796 36.1836C257.58 36.9916 239.806 38.2201 222.815 39.835C204.912 12.8163 174.234 -5 139.395 -5C84.1661 -5 39.3946 39.7715 39.3946 95ZM222.815 39.835C201.954 41.8177 182.272 44.3829 164.4 47.4675C131.344 53.173 105.659 60.452 89.9569 68.5645C74.2549 76.677 69.0956 85.3338 75.0037 93.6547C80.8031 101.823 97.0638 109.381 122.174 115.591C123.104 115.821 124.16 115.839 125.254 115.647C133.423 114.212 137.976 102.995 132 99.9492C126.804 97.3013 123.126 94.508 121.075 91.6199C116.328 84.934 120.473 77.9782 133.09 71.4598C145.707 64.9413 166.344 59.0926 192.906 54.5082C203.979 52.5969 215.918 50.9338 228.489 49.5421C226.777 46.1927 224.881 42.9526 222.815 39.835ZM56.001 150.206C77.0751 148.201 96.9414 145.602 114.951 142.475C147.854 136.76 173.391 129.484 188.975 121.383C204.559 113.282 209.638 104.643 203.697 96.342C197.866 88.1934 181.62 80.6536 156.564 74.4572C155.633 74.227 154.578 74.2093 153.484 74.4014C145.315 75.8359 140.763 87.0538 146.738 90.0992C151.909 92.7343 155.577 95.5135 157.633 98.387C162.407 105.057 158.326 111.998 145.804 118.508C133.282 125.017 112.763 130.863 86.3251 135.455C75.1354 137.398 63.0535 139.087 50.3207 140.498C52.0351 143.848 53.933 147.088 56.001 150.206Z" fill="white" fill-opacity="0.5"/>
</svg>
