<svg width="16" height="16" viewBox="0 0 2000 2000" fill="none" xmlns="http://www.w3.org/2000/svg">
<path d="M0 266.667C0 119.391 119.391 0 266.667 0H1733.33C1880.61 0 2000 119.391 2000 266.667V1733.33C2000 1880.61 1880.61 2000 1733.33 2000H266.667C119.391 2000 0 1880.61 0 1733.33V266.667Z" fill="#FCF6F1"/>
<path fill-rule="evenodd" clip-rule="evenodd" d="M0 250C0 111.929 111.929 0 250 0H1750C1888.07 0 2000 111.929 2000 250V1750C2000 1888.07 1888.07 2000 1750 2000H250C111.929 2000 0 1888.07 0 1750V250ZM250 250H1750V625H625C555.964 625 500 680.964 500 750C500 819.036 555.964 875 625 875H1750V1750H250V1375H1375C1444.04 1375 1500 1319.04 1500 1250C1500 1180.96 1444.04 1125 1375 1125H250V250ZM250.172 1750.15C250.188 1750.16 250.188 1750.16 250.174 1750.15L250.172 1750.15Z" fill="#040404"/>
</svg>
