<svg width="2000" height="2000" viewBox="0 0 2000 2000" fill="none" xmlns="http://www.w3.org/2000/svg">
<path fill-rule="evenodd" clip-rule="evenodd" d="M333.333 0C149.238 0 0 149.238 0 333.333V1666.67C0 1850.76 149.238 2000 333.333 2000H1666.67C1850.76 2000 2000 1850.76 2000 1666.67V333.333C2000 149.238 1850.76 0 1666.67 0H333.333ZM873.576 509.732L742.208 640.75L593.069 790.242C586.834 796.491 583.333 804.957 583.333 813.784V1066.67C583.333 1085.08 598.257 1100 616.667 1100H1187C1214.61 1100 1237 1122.39 1237 1150C1237 1177.61 1214.61 1200 1187 1200H616.667C598.257 1200 583.333 1214.92 583.333 1233.33V1400C583.333 1455.23 628.105 1500 683.333 1500H1316.67C1371.9 1500 1416.67 1455.23 1416.67 1400V933.333C1416.67 914.924 1401.74 900 1383.33 900H885C857.386 900 835 877.614 835 850C835 822.386 857.386 800 885 800H1383.33C1401.74 800 1416.67 785.076 1416.67 766.667V600C1416.67 544.772 1371.9 500 1316.67 500H897.115C888.289 500 879.824 503.5 873.576 509.732Z" fill="#007FFF"/>
</svg>
