<svg width="4000" height="4000" viewBox="0 0 4000 4000" fill="none" xmlns="http://www.w3.org/2000/svg">
<rect width="4000" height="4000" rx="2000" fill="#007FFF"/>
<path d="M2000 2455C2000 2410.82 1964.18 2375 1920 2375H1750C1354.01 2375 1005.81 2579.59 805.328 2888.83C789.288 2913.58 750 2904.49 750 2875C750 2211.53 1266.91 1668.78 1919.98 1627.52C1964.08 1624.73 2000 1589.18 2000 1545V1166.45C2000 1099.37 2077.59 1062.08 2129.98 1103.98L3171.91 1937.53C3211.95 1969.56 3211.95 2030.44 3171.91 2062.47L2129.98 2896.02C2077.59 2937.92 2000 2900.63 2000 2833.55V2455Z" fill="white"/>
<rect width="4000" height="4000" rx="2000" fill="#007FFF"/>
<path d="M2000 2455C2000 2410.82 1964.18 2375 1920 2375H1750C1354.01 2375 1005.81 2579.59 805.328 2888.83C789.288 2913.58 750 2904.49 750 2875C750 2211.53 1266.91 1668.78 1919.98 1627.52C1964.08 1624.73 2000 1589.18 2000 1545V1166.45C2000 1099.37 2077.59 1062.08 2129.98 1103.98L3171.91 1937.53C3211.95 1969.56 3211.95 2030.44 3171.91 2062.47L2129.98 2896.02C2077.59 2937.92 2000 2900.63 2000 2833.55V2455Z" fill="white"/>
</svg>
