<svg width="24" height="24" viewBox="0 0 24 24" fill="none" xmlns="http://www.w3.org/2000/svg">
<rect x="0.5" y="0.5" width="23" height="23" rx="5.5" fill="url(#paint0_linear_2930_11583)" stroke="#F3F4F4"/>
<path fill-rule="evenodd" clip-rule="evenodd" d="M6.25396 11.7197C6.25396 12.6568 6.47932 13.5413 6.87881 14.3219C6.09083 14.4093 5.25925 14.4779 4.40154 14.5262C4.14137 14.5409 3.91463 14.8314 4.03159 15.002C4.06992 15.0579 4.14042 15.0878 4.2254 15.084C5.24925 15.0376 6.24818 14.9681 7.20369 14.8772C8.2279 16.4214 9.9819 17.4395 11.9737 17.4395C15.1326 17.4395 17.6934 14.8786 17.6934 11.7197C17.6934 10.7835 17.4685 9.89975 17.0697 9.11967C17.8735 9.03069 18.7226 8.96111 19.5984 8.9128C19.8568 8.89854 20.0833 8.61104 19.9697 8.43968C19.9318 8.38254 19.8608 8.35185 19.7749 8.35566C18.7332 8.40187 17.7168 8.47211 16.7451 8.56446C15.7211 7.01905 13.9664 6 11.9737 6C8.81477 6 6.25396 8.56081 6.25396 11.7197ZM16.7451 8.56446C15.5517 8.67787 14.4258 8.82461 13.4034 9.00107C11.5127 9.32741 10.0436 9.74375 9.14544 10.2078C8.24733 10.6718 7.95224 11.1669 8.29016 11.6429C8.62187 12.11 9.55194 12.5424 10.9882 12.8976C11.0414 12.9107 11.1017 12.9117 11.1643 12.9007C11.6316 12.8187 11.892 12.1771 11.5502 12.0029C11.253 11.8514 11.0426 11.6917 10.9253 11.5265C10.6538 11.144 10.8909 10.7462 11.6125 10.3734C12.3342 10.0005 13.5146 9.66599 15.0338 9.40378C15.6674 9.29443 16.3504 9.19928 17.0697 9.11967C16.9717 8.9281 16.8633 8.74277 16.7451 8.56446ZM7.20369 14.8772C8.40885 14.7625 9.54495 14.6139 10.5749 14.435C12.4568 14.1082 13.9175 13.692 14.8089 13.2287C15.7002 12.7653 15.9907 12.2712 15.6509 11.7964C15.3174 11.3303 14.3882 10.8991 12.955 10.5446C12.9018 10.5315 12.8415 10.5305 12.7789 10.5414C12.3116 10.6235 12.0512 11.2651 12.393 11.4393C12.6888 11.59 12.8986 11.749 13.0162 11.9134C13.2892 12.2949 13.0558 12.6919 12.3396 13.0642C11.6233 13.4365 10.4497 13.7709 8.93756 14.0335C8.29772 14.1446 7.60687 14.2412 6.87881 14.3219C6.97687 14.5135 7.08542 14.6989 7.20369 14.8772Z" fill="white"/>
<defs>
<linearGradient id="paint0_linear_2930_11583" x1="26.5632" y1="-8.68965" x2="-9.56056" y2="-6.83135" gradientUnits="userSpaceOnUse">
<stop stop-color="#08C4B2"/>
<stop offset="1" stop-color="#205BC3"/>
</linearGradient>
</defs>
</svg>
