<svg width="23" height="16" viewBox="0 0 23 16" fill="none" xmlns="http://www.w3.org/2000/svg">
<path fill-rule="evenodd" clip-rule="evenodd" d="M3.15189 8C3.15189 9.31065 3.46707 10.5477 4.02577 11.6394C2.92385 11.7615 1.761 11.8576 0.56162 11.9251C0.19773 11.9456 -0.119405 12.3519 0.0441799 12.5906C0.097794 12.6688 0.196401 12.7106 0.315254 12.7052C1.747 12.6404 3.14391 12.5432 4.48013 12.4161C5.91264 14.576 8.36596 16 11.1519 16C15.5702 16 19.1519 12.4183 19.1519 8C19.1519 6.69015 18.8371 5.45382 18.279 4.36255C19.4037 4.23804 20.5916 4.14068 21.8169 4.07308C22.1784 4.05314 22.4952 3.65102 22.3363 3.41135C22.2833 3.33143 22.184 3.28851 22.0638 3.29384C20.6065 3.35848 19.1844 3.45677 17.825 3.58598C16.3927 1.42495 13.9387 0 11.1519 0C6.73361 0 3.15189 3.58172 3.15189 8ZM17.825 3.58598C16.1562 3.7446 14.5818 3.9498 13.1522 4.19655C10.5077 4.65299 8.4529 5.23531 7.19674 5.88431C5.94058 6.53331 5.52784 7.22585 6.00049 7.89152C6.46444 8.54497 7.7653 9.14965 9.77409 9.64643C9.84854 9.66484 9.93296 9.66626 10.0205 9.65089C10.674 9.53613 11.0382 8.63871 10.5602 8.39508C10.1445 8.18325 9.85024 7.95979 9.68619 7.72873C9.30641 7.19386 9.63805 6.6374 10.6474 6.11593C11.6567 5.59445 13.3077 5.12656 15.4326 4.7598C16.3184 4.60692 17.2734 4.47388 18.279 4.36255C18.142 4.09459 17.9903 3.83539 17.825 3.58598ZM4.48013 12.4161C6.16604 12.2557 7.75533 12.0478 9.19606 11.7976C11.8283 11.3404 13.8712 10.7583 15.118 10.1103C16.3647 9.46217 16.7711 8.77108 16.2958 8.10696C15.8293 7.45507 14.5296 6.85189 12.5251 6.35617C12.4507 6.33776 12.3663 6.33634 12.2787 6.35171C11.6252 6.46647 11.261 7.36391 11.7391 7.60754C12.1527 7.81835 12.4462 8.04068 12.6107 8.27056C12.9925 8.80418 12.6661 9.35947 11.6643 9.88022C10.6625 10.401 9.02103 10.8687 6.906 11.236C6.01086 11.3914 5.04435 11.5266 4.02577 11.6394C4.1629 11.9074 4.31471 12.1666 4.48013 12.4161Z" fill="url(#paint0_linear_3248_2417)"/>
<defs>
<linearGradient id="paint0_linear_3248_2417" x1="11.1892" y1="0" x2="11.1892" y2="16" gradientUnits="userSpaceOnUse">
<stop stop-color="#08C4B2"/>
<stop offset="1" stop-color="#205BC3"/>
</linearGradient>
</defs>
</svg>
