<svg width="15" height="16" viewBox="0 0 15 16" fill="none" xmlns="http://www.w3.org/2000/svg">
<path d="M10.4133 6.15843L4.13776 2.53955" stroke="#515E5F" stroke-width="1.5" stroke-linecap="round" stroke-linejoin="round"/>
<path d="M13.551 10.7605V5.18224C13.5508 4.93769 13.4862 4.6975 13.3638 4.48578C13.2414 4.27405 13.0655 4.09823 12.8537 3.97595L7.97279 1.18684C7.76079 1.06444 7.52031 1 7.27551 1C7.03071 1 6.79023 1.06444 6.57823 1.18684L1.69728 3.97595C1.48549 4.09823 1.30958 4.27405 1.18719 4.48578C1.06481 4.6975 1.00025 4.93769 1 5.18224V10.7605C1.00025 11.005 1.06481 11.2452 1.18719 11.4569C1.30958 11.6687 1.48549 11.8445 1.69728 11.9668L6.57823 14.7559C6.79023 14.8783 7.03071 14.9427 7.27551 14.9427C7.52031 14.9427 7.76079 14.8783 7.97279 14.7559L12.8537 11.9668C13.0655 11.8445 13.2414 11.6687 13.3638 11.4569C13.4862 11.2452 13.5508 11.005 13.551 10.7605Z" stroke="#515E5F" stroke-width="1.5" stroke-linecap="round" stroke-linejoin="round"/>
<path d="M1.18794 4.45703L7.27519 7.97829L13.3624 4.45703" stroke="#515E5F" stroke-width="1.5" stroke-linecap="round" stroke-linejoin="round"/>
<path d="M7.27551 15V7.97144" stroke="#515E5F" stroke-width="1.5" stroke-linecap="round" stroke-linejoin="round"/>
</svg>
