<svg width="13" height="14" viewBox="0 0 13 14" fill="none" xmlns="http://www.w3.org/2000/svg">
<path d="M1 3.40039H2.2H11.8" stroke="#929A9B" stroke-width="1.5" stroke-linecap="round" stroke-linejoin="round"/>
<path d="M10.6 3.4V11.8C10.6 12.1183 10.4735 12.4235 10.2485 12.6485C10.0234 12.8736 9.71821 13 9.39995 13H3.39995C3.08169 13 2.77647 12.8736 2.55142 12.6485C2.32638 12.4235 2.19995 12.1183 2.19995 11.8V3.4M3.99995 3.4V2.2C3.99995 1.88174 4.12638 1.57652 4.35142 1.35147C4.57647 1.12643 4.88169 1 5.19995 1H7.59995C7.91821 1 8.22344 1.12643 8.44848 1.35147C8.67352 1.57652 8.79995 1.88174 8.79995 2.2V3.4" stroke="#929A9B" stroke-width="1.5" stroke-linecap="round" stroke-linejoin="round"/>
<path d="M5.19995 6.40039V10.0004" stroke="#929A9B" stroke-width="1.5" stroke-linecap="round" stroke-linejoin="round"/>
<path d="M7.6001 6.40039V10.0004" stroke="#929A9B" stroke-width="1.5" stroke-linecap="round" stroke-linejoin="round"/>
</svg>
